<svg viewBox="0 0 443 443" xmlns="http://www.w3.org/2000/svg">
<g clip-path="url(#clip0_1_19)">
<path d="M442.666 178.822L438.662 33.744C438.215 17.522 425.158 4.46498 408.935 4.01598L263.855 0.0119849C255.38 -0.225015 247.362 2.98198 241.387 8.95698L8.954 241.391C-2.97 253.315 -2.97 272.716 8.954 284.64L158.037 433.722C169.988 445.675 189.333 445.678 201.287 433.723L433.721 201.29C439.636 195.374 442.897 187.184 442.666 178.822ZM376.238 139.979C355.915 160.301 323.023 160.303 302.699 139.979C282.424 119.704 282.424 86.714 302.699 66.44C323.022 46.117 355.914 46.116 376.238 66.44C396.512 86.714 396.512 119.704 376.238 139.979Z"/>
</g>
<defs>
<clipPath id="clip0_1_19">
<rect width="442.688" height="442.688" />
</clipPath>
</defs>
</svg>
