<?xml version="1.0" encoding="iso-8859-1"?>
<!-- Generator: Adobe Illustrator 19.0.0, SVG Export Plug-In . SVG Version: 6.00 Build 0)  -->
<svg version="1.1" id="Layer_1" xmlns="http://www.w3.org/2000/svg" xmlns:xlink="http://www.w3.org/1999/xlink" x="0px" y="0px"
	 viewBox="0 0 297 297" style="enable-background:new 0 0 297 297;" xml:space="preserve">
<g>
	<g>
		<g>
			<path d="M94.755,145.625l50.09,33.394c1.105,0.736,2.377,1.105,3.648,1.105c1.272,0,2.544-0.369,3.648-1.105l50.09-33.393
				c1.83-1.219,2.929-3.273,2.929-5.473V95.629c0-2.426-1.335-4.654-3.474-5.799c-2.137-1.145-4.733-1.021-6.752,0.326
				L171.768,105.6l0.001-65.628c0-12.834-10.44-23.274-23.274-23.274c-12.833,0-23.274,10.44-23.275,23.273v0.001V105.6
				l-23.168-15.445c-2.02-1.346-4.615-1.471-6.752-0.326c-2.138,1.144-3.474,3.373-3.474,5.799v44.525
				C91.826,142.351,92.925,144.406,94.755,145.625z"/>
			<path d="M257.029,200.36H39.971C17.931,200.36,0,218.291,0,240.331s17.931,39.971,39.971,39.971h217.058
				c22.04,0,39.971-17.931,39.971-39.971C297,218.291,279.069,200.36,257.029,200.36z M221.012,246.059
				c-1.508,1.507-3.593,2.368-5.728,2.368c-2.126,0-4.22-0.861-5.728-2.368c-1.498-1.508-2.368-3.593-2.368-5.728
				c0-2.136,0.87-4.22,2.368-5.728c1.508-1.508,3.602-2.368,5.728-2.368c2.135,0,4.22,0.86,5.728,2.368
				c1.507,1.508,2.368,3.602,2.368,5.728C223.379,242.456,222.519,244.551,221.012,246.059z M254.405,246.059
				c-1.508,1.507-3.593,2.368-5.728,2.368c-2.136,0-4.22-0.861-5.718-2.368c-1.508-1.508-2.378-3.593-2.378-5.728
				c0-2.136,0.87-4.22,2.378-5.728c1.498-1.508,3.582-2.368,5.718-2.368c2.135,0,4.22,0.86,5.728,2.368
				c1.507,1.508,2.368,3.592,2.368,5.728C256.773,242.466,255.912,244.551,254.405,246.059z"/>
		</g>
	</g>
</g>
<g>
</g>
<g>
</g>
<g>
</g>
<g>
</g>
<g>
</g>
<g>
</g>
<g>
</g>
<g>
</g>
<g>
</g>
<g>
</g>
<g>
</g>
<g>
</g>
<g>
</g>
<g>
</g>
<g>
</g>
</svg>